<svg width="68" height="68" viewBox="0 0 68 68" fill="none" xmlns="http://www.w3.org/2000/svg">
<circle cx="34" cy="34" r="34" fill="url(#paint0_linear_94_42)"/>
<path d="M22.3433 33.1035L46.3433 37.0879L46.3433 47.0957C46.3433 48.8926 46.0894 50.3574 45.5815 51.4902C45.0737 52.623 44.3628 53.4199 43.4487 53.8809C42.5347 54.3496 41.4761 54.4824 40.2729 54.2793C39.3667 54.1152 38.5542 53.7793 37.8354 53.2715C37.1245 52.7715 36.5308 52.1465 36.0542 51.3965C35.5854 50.6465 35.2573 49.8184 35.0698 48.9121L34.8354 48.8652C34.7964 49.834 34.5386 50.6895 34.062 51.4316C33.5854 52.1816 32.9175 52.7363 32.0581 53.0957C31.2065 53.4551 30.2065 53.5371 29.0581 53.3418C27.769 53.1309 26.6167 52.6113 25.6011 51.7832C24.5933 50.9629 23.7964 49.8809 23.2104 48.5371C22.6323 47.1934 22.3433 45.6387 22.3433 43.873L22.3433 33.1035ZM27.019 39.7012L27.019 43.2871C27.019 44.5293 27.2573 45.4902 27.7339 46.1699C28.2183 46.8574 28.8823 47.2637 29.7261 47.3887C30.3433 47.4902 30.8745 47.4355 31.3198 47.2246C31.7729 47.0137 32.1206 46.6621 32.3628 46.1699C32.6128 45.6777 32.7378 45.0566 32.7378 44.3066L32.7378 40.6152L27.019 39.7012ZM36.4761 41.2598L36.4761 44.4824C36.4761 45.1074 36.5815 45.6816 36.7925 46.2051C37.0034 46.7363 37.3081 47.1738 37.7065 47.5176C38.105 47.8691 38.5854 48.0879 39.1479 48.1738C39.9526 48.3066 40.5854 48.123 41.0464 47.623C41.5073 47.123 41.7378 46.3926 41.7378 45.4316L41.7378 42.127L36.4761 41.2598Z" fill="white"/>
<path d="M46 33.7187L22 29.7344L22 13L26.7109 13.7969L26.7109 24.7305L31.6328 25.5273L31.6328 15.4492L36.3555 16.2461L36.3555 26.3242L41.2891 27.1211L41.2891 16.1875L46 16.9844L46 33.7187Z" fill="white"/>
<defs>
<linearGradient id="paint0_linear_94_42" x1="34" y1="0" x2="34" y2="68" gradientUnits="userSpaceOnUse">
<stop stop-color="#EAC5AD"/>
<stop offset="1" stop-color="#EAADAF"/>
</linearGradient>
</defs>
</svg>
