<svg width="96" height="96" viewBox="0 0 96 96" fill="none" xmlns="http://www.w3.org/2000/svg">
<circle cx="48" cy="48" r="48" transform="rotate(-90 48 48)" fill="url(#paint0_linear_95_49)"/>
<path d="M46.7346 64.4566L52.3596 30.5742L66.4883 30.5742C69.0251 30.5742 71.0931 30.9327 72.6923 31.6496C74.2916 32.3665 75.4166 33.3702 76.0673 34.6606C76.7291 35.9511 76.9166 37.4455 76.6298 39.1441C76.3982 40.4235 75.924 41.5705 75.207 42.5853C74.5012 43.5889 73.6188 44.4272 72.56 45.1C71.5012 45.7617 70.332 46.225 69.0526 46.4897L68.9865 46.8205C70.3541 46.8757 71.5618 47.2397 72.6096 47.9125C73.6684 48.5853 74.4515 49.5283 74.9589 50.7415C75.4662 51.9437 75.582 53.3555 75.3063 54.9768C75.0085 56.7967 74.2751 58.4235 73.1059 59.8573C71.9479 61.2801 70.4203 62.4051 68.5232 63.2323C66.6262 64.0485 64.4313 64.4566 61.9387 64.4566L46.7346 64.4566ZM56.049 57.8555L61.1115 57.8555C62.8651 57.8555 64.2217 57.5191 65.1813 56.8463C66.1519 56.1625 66.7254 55.225 66.9019 54.0338C67.0453 53.1625 66.9681 52.4125 66.6703 51.7838C66.3725 51.1441 65.8762 50.6533 65.1813 50.3114C64.4865 49.9584 63.6096 49.7819 62.5508 49.7819L57.3394 49.7819L56.049 57.8555ZM58.2493 44.5044L62.799 44.5044C63.6813 44.5044 64.492 44.3555 65.2309 44.0577C65.9809 43.7599 66.5986 43.3297 67.0839 42.7672C67.5802 42.2047 67.889 41.5264 68.0104 40.7323C68.1979 39.5963 67.9387 38.7029 67.2328 38.0522C66.5269 37.4014 65.4956 37.0761 64.139 37.0761L59.4736 37.0761L58.2493 44.5044Z" fill="white"/>
<path d="M47.6033 31.0591L41.9783 64.9414L18.3533 64.9414L19.4783 58.2907L34.9139 58.2907L36.0389 51.3421L21.811 51.3421L22.936 44.6749L37.1639 44.6749L38.2889 37.7098L22.8533 37.7098L23.9783 31.0591L47.6033 31.0591Z" fill="white"/>
<defs>
<linearGradient id="paint0_linear_95_49" x1="48" y1="0" x2="48" y2="96" gradientUnits="userSpaceOnUse">
<stop stop-color="#EAC5AD"/>
<stop offset="1" stop-color="#EAADAF"/>
</linearGradient>
</defs>
</svg>
