<svg width="608" height="864" viewBox="0 0 608 864" fill="none" xmlns="http://www.w3.org/2000/svg">
<path fill-rule="evenodd" clip-rule="evenodd" d="M188.643 27.7311C218.599 12.753 247.274 4.79167 283.369 1.35075C290.589 0.676064 299.022 0.0688438 302.126 0.00137486C310.087 -0.0660941 335.86 2.36279 347.397 4.38685C390.443 11.8084 429.777 29.4853 464.186 56.8777C474.914 65.4462 495.019 85.552 503.521 96.1446C530.98 130.689 548.927 170.698 556.281 213.945C559.722 234.523 559.992 241.203 559.992 320.141C559.992 386.059 560.127 393.143 561.072 393.548C561.679 393.75 571.732 393.952 583.471 393.952C602.295 393.952 604.926 394.087 606.006 395.099C607.153 396.179 607.22 404.275 607.22 628.272V860.433L605.736 861.984L604.319 863.536H303.678H3.10357L1.55179 862.052L0 860.635V628.542C0 413.518 0.0674689 396.314 1.14697 395.167C2.15901 394.02 3.77826 393.952 23.9515 393.952C39.8741 393.952 45.8114 393.75 46.4186 393.143C47.0258 392.536 47.2282 375.331 47.2282 319.737C47.2282 235.4 47.4981 230.273 52.6258 204.972C56.1341 188.037 61.2618 171.507 67.9412 155.855C91.5553 100.598 135.005 54.4488 188.643 27.7311ZM385.585 90.0049C364.4 79.5472 342.675 73.475 319.128 71.451C299.697 69.7642 278.512 71.451 259.216 76.1738C233.78 82.4484 207.399 95.4024 187.159 111.662C150.793 140.742 126.977 182.235 119.285 229.733C117.804 238.957 117.801 240.118 117.6 315.483L117.598 315.958C117.396 378.3 117.531 392.94 118.206 393.345C119.353 394.087 487.868 394.087 489.015 393.345C489.689 392.94 489.824 378.3 489.622 315.958L489.621 315.483C489.42 240.118 489.416 238.957 487.935 229.733C479.906 180.211 454.403 137.301 415.946 108.626C403.801 99.5855 398.809 96.4819 385.585 90.0049ZM397.755 568.377C397.755 599.051 383.122 626.306 360.456 643.545V711.356C360.456 743.192 334.648 769 302.812 769C270.977 769 245.169 743.192 245.169 711.356V642.671C223.148 625.394 209 598.538 209 568.377C209 516.254 251.254 474 303.377 474C355.501 474 397.755 516.254 397.755 568.377Z" fill="white"/>
</svg>
